<svg xmlns="http://www.w3.org/2000/svg" xmlns:xlink="http://www.w3.org/1999/xlink" viewBox="0,0,255.99272,255.99272" width="32px" height="32px" fill-rule="nonzero"><g fill="#ffffff" fill-rule="nonzero" stroke="none" stroke-width="1" stroke-linecap="butt" stroke-linejoin="miter" stroke-miterlimit="10" stroke-dasharray="" stroke-dashoffset="0" font-family="none" font-weight="none" font-size="none" text-anchor="none" style="mix-blend-mode: normal"><g transform="scale(5.33333,5.33333)"><path d="M29.035,24c-0.021,-0.329 -0.035,-0.661 -0.035,-1c0,-6.08 2.86,-10 7,-10c3.411,0 6.33,2.662 7,7h2l0.001,-9h-2.001c0,0 -0.533,1.506 -1,1.16c-1.899,-1.066 -3.723,-1.132 -6.024,-1.132c-5.8,0 -10.976,5.232 -10.976,11.892c0,0.364 0.021,0.723 0.049,1.08h-2.099c0.029,-0.357 0.05,-0.716 0.05,-1.08c0,-6.66 -5.176,-11.892 -10.976,-11.892c-2.301,0 -4.125,0.065 -6.024,1.132c-0.467,0.346 -1,-1.16 -1,-1.16h-2.001l0.001,9h2c0.67,-4.338 3.589,-7 7,-7c4.14,0 7,3.92 7,10c0,0.339 -0.014,0.671 -0.035,1h-18.965v2h1.009c1.083,0 1.977,0.861 1.999,1.943c0.038,1.846 0.216,4.063 0.992,5.057c1.269,1.625 3,3 8,3c5.022,0 9.92,-4.527 11,-10h2c1.08,5.473 5.978,10 11,10c5,0 6.731,-1.375 8,-3c0.776,-0.994 0.954,-3.211 0.992,-5.057c0.022,-1.082 0.917,-1.943 1.999,-1.943h1.009v-2zM11.477,33.73c-1.605,0 -4.155,-0.006 -4.477,-1.73c-0.109,-0.583 -0.091,-2.527 -0.057,-4.046c0.025,-1.087 0.912,-1.954 2,-1.954h10.057c-0.794,4.781 -3.985,7.73 -7.523,7.73zM41,32c-0.322,1.724 -2.872,1.73 -4.477,1.73c-3.537,0 -6.729,-2.949 -7.523,-7.73h10.057c1.088,0 1.975,0.867 2,1.954c0.034,1.519 0.052,3.463 -0.057,4.046z"></path></g></g></svg>